 <svg  version="1.0" xmlns="http://www.w3.org/2000/svg"  width="900.000000pt" height="900.000000pt" viewBox="0 0 900.000000 900.000000"  preserveAspectRatio="xMidYMid meet">  <g transform="translate(0.000000,900.000000) scale(0.100000,-0.100000)" fill="#f7f3f3" stroke="none"> <path d="M3226 7355 c-10 -8 -27 -32 -37 -55 -10 -22 -22 -40 -27 -40 -5 0 -19 11 -32 25 -33 35 -101 36 -124 0 -9 -13 -16 -37 -16 -52 0 -15 -7 -60 -15 -98 -21 -99 -19 -296 4 -425 10 -58 35 -152 56 -210 52 -150 53 -144 -26 -152 -78 -7 -100 -18 -194 -92 -136 -108 -170 -133 -210 -153 -54 -28 -110 -49 -168 -64 -27 -7 -51 -18 -54 -26 -14 -37 138 -201 239 -257 37 -21 70 -41 73 -46 3 -5 -34 -49 -83 -98 -209 -211 -312 -450 -312 -725 0 -109 22 -273 40 -290 4 -5 27 28 51 74 46 86 121 179 145 179 18 0 18 -10 -6 -100 -33 -127 -24 -319 21 -437 14 -36 37 -28 44 15 11 60 16 72 31 72 8 0 14 -1 14 -2 2 -56 32 -262 39 -277 6 -11 11 -29 11 -40 0 -11 6 -35 14 -53 8 -18 22 -53 32 -78 19 -46 81 -155 142 -248 42 -65 62 -58 39 15 -8 26 -23 87 -32 136 -17 89 -15 113 16 230 14 51 31 36 49 -40 40 -177 149 -359 282 -475 62 -54 225 -158 247 -158 16 0 14 25 -4 40 -21 18 -88 120 -104 160 -19 45 -27 228 -11 244 13 13 18 7 69 -83 57 -101 170 -205 281 -259 56 -27 69 -17 47 40 -26 68 -35 161 -23 235 6 37 16 68 23 70 7 3 24 -15 39 -39 15 -24 74 -115 133 -203 58 -88 122 -189 141 -225 34 -65 35 -66 35 -197 0 -103 3 -133 13 -133 35 0 162 160 162 204 0 7 7 19 15 26 12 10 23 3 62 -40 90 -98 176 -153 329 -212 52 -20 76 -22 214 -21 189 0 217 10 302 106 88 99 98 120 98 206 0 65 -4 82 -31 129 l-31 55 17 41 c28 67 32 79 55 159 25 91 30 195 9 208 -8 5 -26 9 -41 9 -26 0 -28 3 -28 38 1 79 19 121 100 229 49 65 101 121 133 144 147 106 127 97 216 95 48 -1 86 -7 93 -14 21 -21 21 -131 0 -236 -22 -108 -17 -146 17 -146 42 0 149 89 222 185 46 61 109 182 109 211 0 31 21 53 58 60 118 22 214 101 279 229 61 120 86 212 78 284 l-6 56 46 49 c58 62 85 121 85 185 0 41 -6 57 -32 92 -43 54 -146 111 -276 150 -18 6 -67 39 -110 75 -42 35 -87 67 -100 70 -17 5 -26 20 -38 63 -9 31 -23 64 -32 74 -14 15 -14 26 -4 73 9 44 8 62 -4 96 -23 67 -204 298 -346 443 -71 73 -146 157 -166 188 -130 196 -351 360 -593 437 -105 34 -179 39 -200 13 -12 -14 -12 -17 1 -21 28 -9 100 -89 100 -111 0 -20 -9 -26 -40 -21 -8 1 -45 30 -81 65 -96 93 -131 95 -186 13 -30 -45 -59 -56 -110 -43 -13 3 -62 44 -109 90 -80 80 -88 85 -128 85 -32 0 -48 -6 -66 -25 -20 -22 -22 -30 -16 -85 4 -34 3 -60 -2 -60 -5 0 -43 16 -84 35 -70 32 -119 44 -348 89 -189 38 -274 85 -337 189 -20 34 -46 70 -56 80 -24 21 -65 22 -91 2z m286 -316 c37 -19 82 -33 117 -36 193 -17 426 -89 482 -149 22 -24 22 -24 2 -24 -11 0 -37 7 -56 15 -36 15 -180 21 -211 9 -20 -8 -21 -24 -2 -24 8 0 17 -3 20 -8 2 -4 -38 -7 -90 -7 -52 0 -94 3 -94 7 0 11 29 36 50 43 38 12 15 41 -41 51 -32 6 -46 12 -124 52 -64 33 -145 102 -120 102 3 0 33 -14 67 -31z m806 -77 c56 -58 133 -91 240 -101 78 -8 82 -7 82 20 0 23 19 34 33 20 6 -6 19 -11 29 -11 10 0 43 -13 73 -29 42 -23 71 -30 120 -32 36 -1 68 1 72 4 4 4 6 29 4 56 -1 28 3 52 9 56 7 4 37 -10 68 -31 36 -26 57 -35 60 -26 7 22 35 13 97 -30 154 -108 240 -188 319 -298 25 -36 99 -119 164 -185 117 -119 169 -179 230 -265 18 -25 48 -65 67 -90 45 -58 46 -99 5 -133 -35 -30 -69 -43 -79 -30 -4 4 -15 35 -26 68 -27 85 -105 225 -126 225 -3 0 -9 -14 -13 -31 l-6 -32 -46 69 c-62 94 -158 187 -184 179 -14 -4 -22 -1 -27 12 -12 33 -121 168 -164 203 -86 71 -104 79 -70 31 22 -30 27 -51 12 -51 -4 0 -39 20 -77 45 -37 25 -78 45 -91 45 -28 0 -30 -16 -4 -25 22 -7 141 -130 141 -145 0 -16 -23 -11 -55 11 -32 22 -132 69 -146 69 -5 0 -48 19 -96 42 -134 64 -124 61 -113 32 6 -14 24 -46 41 -71 19 -27 28 -48 22 -54 -11 -11 -71 18 -117 56 -21 17 -32 22 -35 13 -7 -22 95 -102 207 -162 152 -80 217 -124 294 -200 93 -91 128 -145 128 -196 0 -34 -4 -42 -24 -50 -13 -5 -28 -15 -33 -23 -15 -25 -57 -47 -91 -47 -62 0 -122 38 -222 140 -52 53 -114 111 -136 129 -56 42 -157 91 -188 91 -13 0 -58 18 -99 39 -86 46 -170 77 -233 87 -34 5 -44 10 -42 23 6 29 78 31 251 5 34 -5 47 -3 47 6 0 6 -28 41 -62 77 -47 48 -83 75 -143 103 -92 45 -197 80 -240 80 -38 0 -60 14 -52 33 6 15 57 27 124 27 44 0 205 -35 237 -52 11 -6 22 -6 27 -1 6 6 -22 30 -73 63 -104 66 -131 95 -116 120 10 15 7 28 -15 68 -27 50 -36 102 -17 102 6 0 32 -22 58 -48z m-1208 -72 c0 -24 51 -117 84 -154 39 -41 45 -66 21 -86 -23 -19 -18 -82 10 -152 43 -107 69 -134 166 -182 64 -31 85 -46 79 -56 -10 -15 -3 -38 18 -62 26 -31 -6 -21 -58 17 -46 34 -88 77 -140 144 -30 39 -56 72 -70 88 -17 20 -70 123 -86 166 -31 84 -54 184 -60 262 l-7 80 22 -27 c11 -14 21 -31 21 -38z m846 -259 c15 -14 138 -60 193 -72 28 -6 51 -16 51 -22 0 -7 -18 -20 -39 -31 -37 -17 -39 -21 -45 -77 -4 -32 -12 -61 -18 -65 -6 -4 -24 8 -41 27 -16 19 -42 48 -58 66 -24 27 -26 33 -13 43 12 11 10 16 -12 39 -28 27 -64 80 -64 94 0 10 34 9 46 -2z m2 -368 c2 -16 -2 -23 -13 -23 -8 0 -18 -8 -22 -17 -9 -27 -34 -53 -51 -53 -12 0 -12 4 2 25 9 13 16 29 16 34 0 5 5 22 10 36 13 34 53 32 58 -2z m-962 -116 c1 -28 8 -55 18 -66 18 -19 21 -41 6 -41 -16 0 -60 23 -60 32 0 4 -7 8 -15 8 -22 0 -19 -46 4 -67 11 -10 31 -26 46 -37 42 -29 18 -39 -56 -23 -78 17 -119 20 -119 8 0 -11 67 -71 79 -71 5 0 12 -7 15 -16 5 -14 0 -15 -41 -9 -27 3 -78 16 -115 27 -81 24 -87 42 -28 83 23 16 63 56 90 90 69 87 127 137 153 133 19 -3 22 -10 23 -51z m1254 -107 c0 -6 -10 -14 -22 -19 -30 -12 -88 -64 -88 -79 0 -16 20 -15 63 3 48 20 131 18 185 -4 24 -9 71 -42 105 -72 34 -31 72 -61 85 -68 21 -11 22 -10 22 19 0 16 3 30 8 30 4 0 27 -14 51 -30 51 -35 52 -35 185 -54 54 -8 103 -19 108 -24 25 -25 -222 -69 -322 -59 -59 7 -88 -3 -75 -23 6 -10 -2 -11 -36 -6 -61 9 -280 9 -301 1 -10 -4 -18 -12 -18 -19 0 -6 -40 -30 -88 -53 -108 -53 -251 -183 -200 -183 6 0 25 10 42 23 44 32 121 72 186 96 97 36 191 49 375 55 197 5 252 13 395 57 108 33 243 59 303 59 64 0 238 -31 285 -52 43 -18 49 -38 12 -38 -26 0 -35 -19 -13 -26 10 -3 25 -10 33 -15 8 -5 24 -13 35 -18 11 -5 42 -28 68 -51 l48 -43 47 44 c26 25 61 52 79 62 39 21 124 22 164 1 28 -14 33 -14 73 5 75 37 129 26 204 -39 24 -22 50 -40 56 -40 14 0 192 -69 231 -90 43 -23 78 -78 70 -110 -14 -53 -40 -94 -85 -129 -26 -21 -74 -66 -106 -100 -93 -100 -132 -107 -88 -14 28 58 64 87 109 85 34 -1 52 18 78 86 16 39 16 45 1 82 -31 76 -168 130 -334 130 -64 0 -104 5 -123 15 -108 56 -235 17 -268 -83 -13 -41 3 -161 27 -199 8 -12 14 -32 14 -44 0 -20 -3 -19 -34 13 -46 47 -76 105 -76 145 0 31 -21 53 -49 53 -19 0 -12 -58 15 -115 28 -59 151 -195 177 -195 17 0 104 -125 116 -167 14 -47 -2 -71 -52 -78 -59 -9 -79 -2 -160 57 -91 68 -143 86 -268 93 -278 15 -344 46 -455 210 -94 141 -167 194 -298 216 -62 11 -88 11 -139 0 -128 -26 -234 -69 -250 -101 -7 -13 -30 -33 -52 -45 -94 -50 -118 -75 -70 -75 31 0 32 -11 4 -36 -33 -29 -73 -92 -130 -200 -78 -151 -132 -214 -214 -254 -65 -32 -59 -56 23 -96 51 -25 59 -32 43 -37 -12 -3 -21 -10 -21 -16 0 -7 32 -42 71 -79 38 -36 91 -98 116 -137 38 -57 47 -79 49 -122 2 -28 10 -65 18 -82 9 -16 16 -42 16 -56 0 -14 7 -42 15 -62 8 -19 15 -49 15 -66 0 -17 6 -49 14 -72 7 -22 21 -65 31 -95 54 -174 152 -298 307 -391 108 -65 135 -75 243 -95 100 -18 160 -18 253 0 87 17 97 3 30 -41 -24 -15 -45 -31 -48 -34 -3 -4 -21 -10 -40 -14 -33 -7 -34 -8 -12 -18 52 -24 13 -37 -114 -37 -255 0 -501 156 -575 365 -11 33 -27 76 -34 95 -7 19 -16 44 -20 55 -11 35 -22 -3 -29 -105 -8 -107 -27 -202 -42 -207 -22 -7 -33 78 -37 268 -5 207 -16 267 -36 193 -6 -23 -19 -48 -29 -58 -18 -16 -19 -13 -26 69 -10 131 -44 207 -218 483 -46 73 -118 216 -118 235 0 8 -7 31 -15 50 -8 21 -15 67 -15 106 0 38 -4 72 -9 75 -18 12 -51 -124 -52 -213 -1 -129 -11 -140 -37 -40 -46 173 -19 414 67 612 12 27 21 54 21 60 0 22 -100 -91 -147 -168 -23 -37 -52 -106 -69 -163 -22 -71 -31 -82 -42 -51 -30 78 -22 234 19 368 32 107 104 236 188 336 72 87 29 67 -151 -71 -27 -20 -48 -32 -48 -26 0 24 136 198 198 254 44 39 121 103 148 122 37 27 4 29 -47 2 -29 -14 -54 -25 -56 -22 -15 14 159 165 272 237 66 42 90 55 175 92 40 18 110 22 110 7z m560 -10 c35 -18 120 -116 120 -137 0 -4 -18 -16 -39 -25 -51 -24 -121 -23 -171 3 -40 21 -130 114 -130 134 0 10 113 40 163 44 10 0 35 -8 57 -19z m-1370 -240 c0 -5 -4 -10 -10 -10 -34 0 -271 -192 -252 -204 6 -3 14 -1 17 4 4 7 19 9 35 5 20 -4 43 1 79 19 51 26 81 33 81 18 0 -4 -25 -35 -56 -67 -66 -71 -129 -156 -178 -244 -38 -66 -45 -96 -23 -104 9 -3 6 -15 -10 -48 -48 -98 -101 -217 -118 -264 -9 -27 -21 -59 -25 -70 -16 -41 -39 -111 -50 -151 -5 -23 -18 -45 -27 -48 -14 -6 -15 3 -10 86 3 51 11 116 17 143 26 108 84 274 127 363 25 51 42 96 39 99 -12 13 -165 -174 -220 -269 -15 -27 -32 -48 -37 -48 -18 0 -8 37 34 120 48 97 94 168 167 258 65 80 49 89 -60 34 -57 -28 -80 -35 -80 -25 0 22 84 106 186 185 74 58 89 74 73 76 -12 2 -26 -1 -32 -7 -6 -6 -23 -11 -37 -11 -14 0 -31 -5 -37 -11 -6 -6 -19 -9 -29 -6 -18 4 -18 4 1 12 11 5 36 20 55 33 115 78 380 170 380 132z m2190 -24 c59 -1 89 -13 133 -54 40 -38 35 -52 -17 -52 -51 0 -67 -14 -35 -30 36 -20 7 -32 -55 -25 -34 5 -71 17 -92 31 -20 14 -71 42 -115 63 -81 39 -85 51 -19 51 16 0 30 7 34 16 5 14 15 15 59 9 28 -4 77 -8 107 -9z m380 -21 c0 -16 -27 -32 -37 -22 -3 4 -3 13 0 22 8 20 37 20 37 0z m-120 -22 c14 -7 31 -13 38 -13 8 0 34 -14 58 -32 46 -33 46 -50 2 -64 -26 -8 -90 26 -85 46 3 16 -33 50 -55 50 -21 0 -41 17 -34 28 7 11 37 5 76 -15z m375 -414 c73 -11 164 -36 179 -49 29 -27 -133 -29 -266 -4 -88 17 -106 28 -95 59 6 15 40 14 182 -6z m-2985 -57 c0 -9 -9 -42 -20 -72 -71 -191 -118 -480 -120 -730 0 -134 -13 -200 -24 -129 -46 288 -32 577 34 734 5 11 18 41 28 67 23 53 83 148 94 148 5 0 8 -8 8 -18z m1165 -112 c-31 -33 -45 -38 -45 -16 0 16 38 45 59 45 9 1 4 -10 -14 -29z m445 -3 c57 -53 130 -144 130 -161 0 -9 -4 -24 -9 -34 -5 -9 -15 -43 -22 -75 -14 -65 -30 -94 -47 -83 -17 10 -59 101 -77 167 -10 35 -27 66 -45 84 -24 23 -30 37 -30 71 0 30 5 46 18 53 28 17 45 13 82 -22z m1035 23 c3 -5 24 -10 46 -10 27 0 42 -5 46 -16 7 -20 -35 -110 -46 -98 -29 32 -71 100 -71 116 0 19 15 24 25 8z m472 -256 c8 -22 -15 -119 -38 -158 -11 -18 -30 -38 -44 -44 -14 -6 -25 -16 -25 -22 0 -5 -11 -10 -25 -10 -17 0 -29 8 -37 25 -10 22 -62 55 -87 55 -26 0 -7 23 47 57 31 19 84 53 117 74 66 43 83 47 92 23z m-1275 -70 c47 -16 54 -24 68 -81 22 -90 -96 -100 -141 -11 -20 38 -23 65 -13 92 8 20 28 20 86 0z m493 -54 c44 -18 97 -44 117 -57 74 -46 137 -63 235 -63 87 0 93 -1 109 -25 13 -19 15 -38 9 -87 -7 -64 -33 -153 -57 -198 -48 -90 -134 -188 -151 -171 -5 5 -4 41 2 85 12 82 4 243 -11 252 -5 4 -24 -2 -42 -11 -31 -17 -34 -17 -72 2 -30 16 -52 19 -96 15 -73 -6 -103 12 -118 69 -11 41 -10 54 5 92 5 12 2 17 -9 17 -11 0 -16 -9 -16 -29 0 -67 -73 -240 -139 -332 -41 -56 -89 -109 -101 -109 -6 0 -10 28 -10 68 -1 37 -5 112 -10 167 -27 292 -29 318 -19 338 10 18 20 19 152 15 133 -5 147 -7 222 -38z m-2301 -61 c3 -17 6 -68 6 -113 0 -117 -52 -362 -84 -394 -13 -13 -15 -10 -22 23 -12 63 3 254 30 378 14 65 28 122 31 127 13 20 33 9 39 -21z m171 -312 c12 -73 15 -109 8 -122 -9 -16 -12 -13 -23 19 -6 20 -16 36 -21 36 -10 0 -12 101 -3 149 4 17 10 29 14 26 4 -2 15 -51 25 -108z m1115 -34 c54 -56 120 -167 120 -202 0 -9 6 -25 14 -36 7 -11 16 -41 20 -66 6 -44 5 -47 -18 -53 -14 -3 -63 -44 -110 -91 -47 -47 -88 -85 -91 -85 -5 0 -31 56 -47 105 -6 17 -14 107 -18 200 -5 94 -11 186 -15 205 -5 28 -2 40 15 58 35 37 67 29 130 -35z m-780 -237 c0 -12 -28 18 -55 59 -36 55 -55 95 -55 114 0 11 -4 23 -10 26 -5 3 -10 20 -10 38 0 26 12 7 65 -98 36 -71 65 -133 65 -139z m519 238 c32 -27 38 -52 21 -84 -8 -14 -4 -21 16 -35 24 -15 25 -21 23 -90 -2 -50 1 -78 10 -89 9 -10 12 -29 8 -50 -4 -27 -1 -38 19 -57 13 -12 24 -33 24 -46 0 -13 11 -51 25 -85 29 -71 31 -86 10 -94 -41 -16 -88 86 -139 301 -38 158 -64 234 -103 298 -13 21 -21 42 -18 47 12 20 73 10 104 -16z m-792 -36 c-2 -13 -4 -5 -4 17 -1 22 1 32 4 23 2 -10 2 -28 0 -40z m1285 -41 c40 -40 89 -126 116 -202 23 -69 59 -237 72 -340 12 -97 -24 -131 -108 -101 -65 23 -102 54 -124 103 -18 42 -18 46 -3 93 9 26 23 51 31 54 35 13 -7 274 -63 389 -30 61 18 63 79 4z m250 -23 c-3 -73 10 -100 33 -66 9 12 23 22 31 22 12 0 15 -14 14 -72 -1 -40 3 -93 9 -118 17 -74 14 -156 -6 -176 -10 -10 -19 -29 -20 -42 -2 -30 -27 -57 -42 -48 -6 4 -11 26 -11 49 0 23 -6 59 -14 82 -27 78 -45 181 -50 282 -4 92 -2 105 16 128 31 39 43 27 40 -41z m-1625 -181 c-3 -10 -5 -2 -5 17 0 19 2 27 5 18 2 -10 2 -26 0 -35z m1259 -199 c-3 -8 -10 -57 -16 -107 -5 -51 -13 -109 -16 -130 l-6 -37 35 20 c44 26 83 18 106 -21 14 -26 22 -29 65 -29 58 0 86 -20 86 -62 0 -41 14 -35 55 27 77 117 203 265 225 265 13 0 13 -6 -5 -87 -18 -76 -105 -261 -139 -291 -65 -59 -256 -54 -384 11 -87 44 -218 148 -226 181 -11 46 161 276 207 276 13 0 17 -5 13 -16z m-144 -437 c20 -20 158 -100 198 -115 19 -8 57 -18 84 -22 27 -5 54 -14 60 -20 5 -5 37 -10 70 -10 44 0 57 -3 49 -11 -7 -7 -27 -9 -50 -6 -21 3 -72 10 -113 15 -41 5 -84 14 -95 19 -11 6 -42 21 -68 34 -92 45 -157 93 -157 116 0 16 5 16 22 0z"/> <path d="M4075 6480 c-8 -27 10 -49 26 -33 13 13 8 45 -8 50 -6 2 -14 -6 -18 -17z"/> <path d="M4674 3559 c-3 -6 -1 -16 5 -22 8 -8 11 -5 11 11 0 24 -5 28 -16 11z"/> </g> </svg> 