<?xml version="1.0" standalone="no"?>
<!DOCTYPE svg PUBLIC "-//W3C//DTD SVG 20010904//EN"
 "http://www.w3.org/TR/2001/REC-SVG-20010904/DTD/svg10.dtd">
<svg version="1.0" xmlns="http://www.w3.org/2000/svg"
 width="300.000000pt" height="300.000000pt" viewBox="0 0 300.000000 300.000000"
 preserveAspectRatio="xMidYMid meet">
<metadata>
Created by potrace 1.10, written by Peter Selinger 2001-2011
</metadata>
<g transform="translate(0.000000,300.000000) scale(0.100000,-0.100000)"
fill="#000000" stroke="none">
<path d="M1073 2440 c-6 -23 -7 -24 -33 -8 -31 19 -41 -1 -47 -89 -5 -73 4
-132 33 -208 5 -11 0 -15 -19 -15 -14 0 -49 -19 -82 -44 -31 -25 -71 -48 -89
-52 -17 -3 -34 -8 -39 -11 -13 -8 43 -71 79 -88 l35 -16 -40 -41 c-59 -58 -95
-138 -99 -220 -3 -37 -1 -80 3 -95 l7 -28 18 35 c10 19 28 44 40 55 l21 19 -8
-29 c-12 -45 -9 -163 5 -177 9 -9 12 -5 12 19 0 60 18 42 22 -21 3 -50 13 -82
42 -140 21 -42 42 -76 46 -76 4 0 1 23 -7 51 -15 51 -11 119 7 119 6 0 10 -11
10 -25 0 -58 64 -147 147 -203 45 -31 47 -28 12 21 -25 36 -30 51 -27 88 l3
44 19 -39 c16 -32 97 -105 117 -106 4 0 0 18 -7 41 -9 26 -12 51 -6 71 l8 32
21 -35 c11 -19 37 -61 57 -93 29 -48 36 -70 36 -110 l1 -51 29 33 c17 18 30
40 30 49 0 13 10 8 38 -19 55 -53 92 -68 168 -68 62 0 68 2 100 34 36 36 46
90 23 113 -9 9 -8 22 5 53 21 53 21 100 0 100 -13 0 -15 6 -9 28 17 71 104
150 158 144 23 -3 27 -8 27 -37 0 -19 -4 -45 -10 -60 -8 -21 -7 -27 7 -32 21
-8 102 78 110 118 4 20 13 30 33 34 51 11 115 105 108 159 -1 12 8 35 20 51
15 19 22 39 20 59 -3 27 -11 35 -63 61 -102 51 -128 76 -129 127 -2 58 -10 68
-215 294 -20 22 -57 52 -81 67 -79 46 -193 64 -132 21 12 -8 22 -19 22 -25 0
-17 -26 -9 -48 16 -26 30 -38 31 -52 5 -15 -28 -42 -25 -75 10 -37 39 -71 37
-68 -3 2 -26 -10 -36 -22 -18 -3 6 -40 17 -83 27 -100 21 -140 40 -158 75 -17
34 -44 38 -51 9z m156 -100 c81 -16 122 -30 154 -52 38 -27 27 -34 -23 -14
-22 9 -50 16 -63 16 -20 -1 -20 -2 6 -16 16 -9 27 -18 24 -21 -3 -2 -14 0 -25
6 -31 17 -37 13 -16 -10 22 -24 76 -53 119 -63 l30 -8 -27 -14 c-39 -20 -39
-59 0 -60 15 -1 52 -13 82 -27 l55 -25 -35 -1 c-20 -1 -42 5 -49 12 -11 10
-14 10 -18 0 -3 -7 -21 -13 -40 -13 -47 0 -117 -21 -102 -31 8 -4 4 -11 -12
-19 -13 -7 -35 -24 -48 -36 -13 -13 -29 -24 -36 -24 -24 0 -120 -48 -140 -69
l-19 -22 28 11 c15 5 48 22 72 36 62 36 55 15 -13 -39 -32 -25 -69 -65 -82
-89 -19 -34 -20 -40 -6 -28 12 10 9 -3 -14 -47 -17 -35 -31 -70 -31 -80 0 -10
-7 -36 -15 -58 -19 -53 -19 -76 0 -69 23 9 18 -10 -19 -77 -31 -56 -34 -59
-40 -35 -13 54 -17 142 -8 166 6 14 11 19 11 13 2 -29 19 -10 24 26 3 22 25
81 50 131 36 73 40 87 22 70 -28 -26 -95 -150 -95 -175 0 -10 -14 -34 -32 -53
l-31 -36 7 54 c7 56 30 105 45 96 4 -3 17 15 29 38 11 24 35 60 53 80 51 59
24 54 -36 -6 -32 -32 -53 -61 -50 -69 3 -9 -17 -28 -56 -52 l-62 -38 6 51 c8
65 48 138 110 201 48 49 48 49 25 59 -23 10 -23 10 2 5 14 -4 31 -7 38 -7 19
-2 15 -9 -30 -56 l-43 -43 71 41 c39 22 101 51 138 64 62 22 107 46 61 33 -72
-21 -158 -29 -203 -18 -105 26 -122 32 -117 41 3 4 14 6 25 3 14 -4 34 9 71
46 28 28 60 51 70 51 10 0 37 -19 59 -42 35 -37 39 -39 29 -15 -15 34 -4 48
16 20 20 -29 78 -48 102 -34 16 9 15 10 -7 11 -28 0 -126 75 -147 112 -38 67
-68 230 -47 251 4 4 17 -12 29 -35 18 -33 20 -46 11 -60 -14 -23 0 -48 37 -66
15 -7 27 -21 27 -30 0 -9 7 -30 15 -45 9 -19 10 -25 2 -21 -7 4 -3 -2 8 -13
11 -12 38 -24 60 -28 l40 -7 -41 30 c-45 33 -74 68 -74 90 0 8 -8 26 -19 40
-25 37 -39 89 -33 134 l4 38 40 -35 c28 -24 58 -37 97 -45z m211 -10 c0 -25
104 -54 112 -30 2 6 15 4 32 -5 42 -22 76 -20 76 5 0 25 8 25 33 3 12 -11 17
-12 12 -4 -14 25 55 -21 96 -64 84 -86 185 -202 198 -228 11 -21 12 -29 1 -42
-19 -23 -26 -19 -38 24 -14 46 -42 75 -43 45 0 -15 -2 -14 -10 5 -11 27 -158
181 -173 181 -5 0 1 -12 15 -27 l24 -27 -31 22 c-17 12 -44 26 -60 32 -27 9
-27 9 -9 -4 75 -55 108 -85 121 -108 8 -16 17 -28 19 -28 2 0 0 12 -5 28 l-10
27 24 -30 c14 -16 29 -45 34 -65 l10 -35 1 35 c1 30 3 32 12 17 6 -10 8 -34 5
-53 -4 -21 -3 -34 4 -34 5 0 10 10 11 23 0 21 1 21 9 2 5 -11 9 -14 9 -7 2 27
21 10 21 -19 l0 -32 -46 7 c-26 3 -58 6 -71 6 -22 0 -24 3 -19 24 3 14 2 36
-4 50 -9 24 -79 98 -123 130 -13 10 -3 7 23 -5 25 -12 53 -28 63 -37 9 -8 17
-11 17 -5 0 12 -45 45 -100 73 -25 12 -55 32 -67 43 -31 28 -29 6 3 -32 37
-44 9 -39 -32 6 -19 20 -34 32 -34 26 0 -22 44 -65 92 -89 58 -29 148 -110
148 -132 0 -19 -29 -41 -54 -42 -10 0 -45 25 -78 55 -32 30 -71 58 -86 62 -15
3 -45 14 -67 24 -22 10 -53 19 -68 19 -16 0 -26 4 -22 10 8 13 66 13 99 0 32
-12 33 0 4 27 -33 30 -80 51 -127 59 -23 4 -41 10 -41 15 0 14 80 10 125 -6
52 -19 57 -11 8 14 -22 11 -46 27 -54 37 -18 22 -19 64 -2 64 7 0 13 -4 13
-10z m-10 -307 c0 -5 -14 -16 -31 -26 -34 -19 -34 -36 -1 -18 36 19 70 12 109
-21 24 -22 35 -27 30 -15 -6 17 -5 17 15 2 13 -8 41 -15 65 -15 53 0 65 -17
18 -26 -52 -9 -123 1 -145 21 -11 10 -20 14 -20 9 0 -6 16 -19 35 -30 l35 -20
-65 4 c-36 2 -65 0 -65 -5 0 -5 -15 -14 -32 -21 -36 -13 -126 -86 -93 -75 11
3 31 15 44 25 35 27 116 48 185 48 33 0 94 9 135 21 72 20 114 21 180 3 16 -5
22 -3 18 3 -4 6 -28 16 -54 23 -48 12 -48 13 -20 22 16 6 44 7 65 2 20 -4 43
-6 50 -5 14 2 52 -26 52 -40 0 -4 -10 -5 -22 -3 -13 2 -17 2 -10 -2 23 -11 2
-23 -23 -14 -14 5 -35 6 -47 1 l-23 -8 25 -8 c14 -4 33 -14 42 -22 14 -13 19
-12 38 7 16 16 30 21 53 17 18 -2 39 -1 48 4 11 6 42 -4 97 -31 44 -22 83 -44
87 -50 3 -5 1 -20 -6 -32 -17 -33 -93 -101 -97 -88 -6 16 26 60 43 60 21 0 35
31 24 52 -11 20 -58 34 -151 43 -61 7 -67 5 -77 -14 -15 -27 -6 -63 35 -137
18 -34 31 -64 27 -68 -14 -13 -54 -5 -89 19 -24 17 -51 25 -78 25 -75 0 -113
17 -146 66 -39 56 -66 74 -116 75 -44 2 -126 -20 -119 -31 3 -4 -9 -13 -25
-20 -37 -15 -48 -30 -18 -23 l23 6 -21 -24 c-12 -13 -29 -40 -39 -59 -18 -36
-63 -90 -76 -90 -3 0 -14 15 -23 33 -12 24 -16 27 -16 12 0 -35 27 -62 75 -74
50 -13 62 -27 14 -17 l-31 6 45 -50 c25 -28 45 -59 45 -72 0 -39 31 -150 55
-192 42 -77 163 -132 232 -106 38 14 43 6 14 -25 -32 -33 -95 -34 -164 -1 -61
28 -80 49 -105 112 l-19 49 -1 -40 c-1 -116 -30 -104 -31 13 -1 79 -2 84 -12
52 l-11 -35 -6 50 c-3 28 -18 72 -34 100 -77 132 -88 158 -83 205 6 45 5 45
-8 15 -8 -16 -15 -52 -15 -80 -1 -44 -2 -47 -12 -25 -18 45 -4 159 27 220 26
51 26 54 5 35 -28 -25 -65 -90 -75 -130 -6 -27 -8 -28 -17 -11 -24 43 18 175
74 234 45 46 22 40 -31 -8 -24 -22 -46 -38 -49 -35 -10 9 70 95 118 126 63 41
64 49 3 15 l-48 -26 47 44 c60 55 168 112 168 89z m204 -32 c23 -24 25 -29 11
-35 -33 -12 -64 -6 -94 20 -17 14 -31 30 -31 35 0 5 19 9 43 9 35 0 49 -6 71
-29z m372 -76 c-2 -7 0 -17 6 -23 14 -14 -6 -24 -34 -17 -13 3 -30 16 -37 27
-12 20 -11 21 18 15 24 -5 29 -3 24 8 -4 11 -1 13 11 9 10 -4 15 -12 12 -19z
m-901 -167 c-41 -89 -58 -208 -47 -319 9 -92 9 -92 11 -29 1 72 26 229 38 241
15 15 12 -192 -3 -234 -19 -54 -19 -78 0 -51 24 32 29 8 7 -35 -12 -22 -21
-53 -21 -68 l-1 -28 -24 30 c-29 35 -65 124 -65 161 0 38 16 20 24 -25 3 -22
10 -42 15 -46 6 -3 6 8 0 27 -16 52 -11 227 7 288 18 62 39 107 62 133 25 28
24 14 -3 -45z m1020 21 c33 -10 37 -13 20 -19 -28 -10 -97 0 -115 16 -12 12
-9 14 20 14 19 0 53 -5 75 -11z m-632 -51 c-33 -37 -61 -84 -43 -74 29 17 62
51 71 74 5 13 17 22 30 22 17 0 20 -5 16 -22 -8 -34 42 -129 81 -153 17 -11
35 -30 38 -42 3 -13 13 -23 21 -23 12 0 13 -9 8 -42 -7 -41 -6 -42 9 -23 15
19 16 16 11 -45 -9 -95 -15 -130 -24 -130 -13 0 -34 112 -33 180 0 36 -3 72
-8 80 -8 12 -10 11 -10 -5 0 -11 -4 -26 -9 -34 -7 -11 -14 -8 -32 14 -72 83
-209 109 -209 40 0 -32 -14 -39 -34 -16 -16 18 -15 21 14 64 17 25 40 66 51
91 18 42 40 65 63 66 5 0 0 -10 -11 -22z m507 7 c6 4 10 -4 10 -18 0 -36 -12
-40 -32 -10 -22 34 -23 50 -3 33 8 -6 19 -9 25 -5z m-345 -28 c24 -32 24 -36
11 -73 l-14 -39 -16 37 c-9 21 -16 42 -16 48 0 5 -4 10 -10 10 -5 0 -10 11
-10 25 0 35 24 32 55 -8z m421 10 c7 -20 -13 -67 -30 -67 -23 0 -25 12 -11 48
15 33 32 42 41 19z m59 -97 c-10 -22 -22 -40 -27 -40 -4 0 -8 -6 -8 -14 0 -8
-7 -16 -15 -20 -10 -4 -14 1 -12 16 1 16 -5 23 -23 28 -25 6 -25 6 10 25 19
10 46 26 59 37 33 25 38 16 16 -32z m-407 -22 c2 -19 -1 -28 -10 -28 -20 0
-38 21 -38 43 0 32 44 18 48 -15z m176 -3 c27 -14 64 -25 86 -25 21 0 41 -4
44 -9 10 -15 -23 -105 -49 -136 l-25 -30 6 64 c7 61 6 63 -14 56 -12 -3 -27
-3 -34 1 -7 5 -24 8 -38 8 -22 1 -25 5 -23 37 2 30 -2 38 -18 42 -16 4 -18 3
-9 -8 17 -20 2 -78 -33 -132 l-32 -48 -6 60 c-4 33 -7 79 -8 103 l-1 42 54 0
c37 0 67 -7 100 -25z m-357 -61 c67 -39 123 -150 126 -254 2 -53 1 -55 -22
-52 -14 1 -33 10 -43 19 -19 17 -24 58 -8 68 24 15 -1 110 -46 178 -34 52 -41
41 -9 -14 32 -58 57 -129 45 -129 -5 0 -25 -14 -44 -30 -41 -36 -44 -32 -56
78 -7 64 -12 78 -40 107 -28 29 -31 36 -20 50 17 20 59 12 117 -21z m-338
-130 c6 -11 11 -15 11 -10 0 5 9 1 20 -9 19 -17 19 -18 0 -56 -11 -21 -20 -47
-20 -59 0 -30 -22 -24 -46 13 -38 59 -44 257 -8 257 8 0 15 6 15 13 1 6 5 -20
9 -59 4 -40 13 -80 19 -90z m115 -116 c-6 -21 -7 -21 -25 3 -17 23 -31 59 -23
59 2 0 13 -15 24 -32 11 -18 20 -29 20 -24 0 5 -20 42 -45 82 -25 39 -45 84
-45 98 0 20 13 2 51 -69 35 -68 48 -102 43 -117z m141 140 c7 -42 26 -116 40
-150 12 -29 -13 -21 -28 10 -8 15 -20 52 -27 82 -7 30 -19 65 -27 78 -17 28
-9 46 17 32 11 -6 21 -26 25 -52z m112 -121 c-3 -8 -8 -39 -12 -70 -4 -32 -9
-57 -12 -57 -10 0 -53 33 -53 42 0 16 60 98 72 98 5 0 8 -6 5 -13z m178 -39
c-3 -13 -16 -44 -27 -70 -17 -39 -27 -49 -52 -53 -32 -6 -109 14 -107 28 1 4
1 18 1 32 0 18 5 25 20 25 11 0 20 -4 20 -9 0 -5 10 -11 23 -13 17 -2 21 -9
19 -28 -2 -22 1 -20 25 16 66 95 91 119 78 72z m-89 -143 c71 0 73 -1 45 -14
-40 -19 -107 -7 -165 29 -25 16 -46 34 -46 40 0 5 21 -5 46 -23 42 -29 52 -32
120 -32z"/>
<path d="M1109 2363 c-13 -3 -8 -12 18 -38 29 -29 42 -35 79 -35 24 0 44 5 44
10 0 6 -9 10 -21 10 -23 0 -55 15 -84 40 -11 9 -27 15 -36 13z"/>
<path d="M1196 2241 c17 -10 46 -22 65 -26 l34 -7 -24 26 c-19 20 -34 26 -65
26 l-41 0 31 -19z"/>
<path d="M1083 2213 c-15 -5 15 -71 43 -94 16 -13 16 -12 -1 14 -10 15 -20 40
-24 56 -3 16 -11 26 -18 24z"/>
<path d="M1248 2174 c19 -10 36 -23 39 -30 6 -17 -37 -74 -56 -74 -8 0 -12 -3
-8 -6 3 -3 19 -3 36 1 22 5 33 14 37 31 6 24 7 24 25 8 11 -9 19 -24 19 -33 0
-14 2 -14 10 -1 16 24 12 56 -10 75 -11 10 -17 21 -15 26 3 4 0 11 -6 15 -8 5
-9 3 -4 -6 5 -8 2 -11 -11 -7 -11 3 -35 8 -54 12 l-35 6 33 -17z"/>
<path d="M1010 2052 c0 -11 11 -24 25 -30 l25 -12 -15 30 c-17 34 -35 39 -35
12z"/>
<path d="M982 2020 c5 -17 40 -28 88 -28 30 0 28 2 -13 8 -27 5 -55 14 -64 22
-14 11 -15 11 -11 -2z"/>
<path d="M940 1991 c0 -12 21 -19 80 -27 34 -5 50 -3 50 5 0 6 -17 11 -39 11
-22 0 -51 4 -65 10 -14 5 -26 6 -26 1z"/>
<path d="M984 1852 c-62 -40 -87 -65 -90 -88 -4 -23 13 -16 35 15 11 15 45 45
76 66 30 21 55 40 55 42 0 10 -23 -1 -76 -35z"/>
<path d="M1335 1910 c16 -7 16 -9 4 -9 -9 -1 -27 -10 -40 -21 -23 -19 -21 -19
26 2 30 13 70 21 99 21 31 -1 44 2 35 8 -8 5 -43 8 -79 8 -45 0 -59 -3 -45 -9z"/>
<path d="M1282 1834 c-23 -20 -47 -45 -53 -57 -7 -11 16 4 50 34 33 29 61 55
61 56 0 11 -22 -2 -58 -33z"/>
<path d="M1688 1815 c23 -7 54 -20 67 -29 17 -11 23 -12 19 -3 -8 22 -60 47
-96 46 l-33 0 43 -14z"/>
<path d="M1660 1798 c3 -3 25 -16 50 -28 43 -21 44 -21 25 -2 -11 12 -33 24
-50 28 -16 4 -28 4 -25 2z"/>
<path d="M1891 1753 c10 -27 69 -100 69 -85 0 4 -11 23 -25 42 -14 19 -25 42
-25 52 0 10 -7 18 -15 18 -12 0 -13 -5 -4 -27z"/>
<path d="M1332 1728 c-17 -23 -44 -80 -38 -85 2 -3 16 18 30 46 26 50 29 64 8
39z"/>
<path d="M1185 1390 l5 -35 -15 30 c-17 37 -18 13 -1 -35 l13 -34 6 32 c4 17
2 42 -3 54 -8 19 -9 17 -5 -12z"/>
</g>
</svg>
